<svg width="192" height="63" viewBox="0 0 192 63" fill="none" xmlns="http://www.w3.org/2000/svg">
<path d="M35.196 47.928H37.772V57H38.542V47.928H41.118V47.2H35.196V47.928ZM45.3819 53.71H50.4079L50.1559 52.982H45.6339L45.3819 53.71ZM47.8739 48.6L49.8059 53.276L49.8759 53.458L51.3319 57H52.1999L47.8739 46.822L43.5479 57H44.4159L45.8859 53.402L45.9699 53.234L47.8739 48.6ZM55.0339 47.928H57.6099V57H58.3799V47.928H60.9559V47.2H55.0339V47.928ZM65.2741 47.928H67.8501V57H68.6201V47.928H71.1961V47.2H65.2741V47.928ZM75.6253 52.1C75.6253 51.2787 75.7979 50.5507 76.1433 49.916C76.4979 49.272 76.9786 48.768 77.5853 48.404C78.2013 48.0307 78.9013 47.844 79.6853 47.844C80.4693 47.844 81.1646 48.0307 81.7713 48.404C82.3873 48.768 82.8679 49.272 83.2133 49.916C83.5586 50.5507 83.7313 51.2787 83.7313 52.1C83.7313 52.912 83.5586 53.64 83.2133 54.284C82.8679 54.928 82.3873 55.4367 81.7713 55.81C81.1646 56.174 80.4693 56.356 79.6853 56.356C78.9013 56.356 78.2013 56.174 77.5853 55.81C76.9786 55.4367 76.4979 54.928 76.1433 54.284C75.7979 53.64 75.6253 52.912 75.6253 52.1ZM74.8133 52.1C74.8133 52.8187 74.9346 53.486 75.1773 54.102C75.4199 54.7087 75.7606 55.2407 76.1993 55.698C76.6379 56.146 77.1513 56.496 77.7393 56.748C78.3366 57 78.9853 57.126 79.6853 57.126C80.3853 57.126 81.0293 57 81.6173 56.748C82.2146 56.496 82.7326 56.146 83.1713 55.698C83.6099 55.2407 83.9506 54.7087 84.1933 54.102C84.4359 53.486 84.5573 52.8187 84.5573 52.1C84.5573 51.3813 84.4359 50.7187 84.1933 50.112C83.9506 49.496 83.6099 48.964 83.1713 48.516C82.7326 48.0587 82.2146 47.704 81.6173 47.452C81.0293 47.2 80.3853 47.074 79.6853 47.074C78.9853 47.074 78.3366 47.2 77.7393 47.452C77.1513 47.704 76.6379 48.0587 76.1993 48.516C75.7606 48.964 75.4199 49.496 75.1773 50.112C74.9346 50.7187 74.8133 51.3813 74.8133 52.1ZM90.1038 52.1C90.1038 51.2787 90.2764 50.5507 90.6218 49.916C90.9764 49.272 91.4571 48.768 92.0638 48.404C92.6798 48.0307 93.3798 47.844 94.1638 47.844C94.9478 47.844 95.6431 48.0307 96.2498 48.404C96.8658 48.768 97.3464 49.272 97.6918 49.916C98.0371 50.5507 98.2098 51.2787 98.2098 52.1C98.2098 52.912 98.0371 53.64 97.6918 54.284C97.3464 54.928 96.8658 55.4367 96.2498 55.81C95.6431 56.174 94.9478 56.356 94.1638 56.356C93.3798 56.356 92.6798 56.174 92.0638 55.81C91.4571 55.4367 90.9764 54.928 90.6218 54.284C90.2764 53.64 90.1038 52.912 90.1038 52.1ZM89.2918 52.1C89.2918 52.8187 89.4131 53.486 89.6558 54.102C89.8984 54.7087 90.2391 55.2407 90.6778 55.698C91.1164 56.146 91.6298 56.496 92.2178 56.748C92.8151 57 93.4638 57.126 94.1638 57.126C94.8638 57.126 95.5078 57 96.0958 56.748C96.6931 56.496 97.2111 56.146 97.6498 55.698C98.0884 55.2407 98.4291 54.7087 98.6718 54.102C98.9144 53.486 99.0358 52.8187 99.0358 52.1C99.0358 51.3813 98.9144 50.7187 98.6718 50.112C98.4291 49.496 98.0884 48.964 97.6498 48.516C97.2111 48.0587 96.6931 47.704 96.0958 47.452C95.5078 47.2 94.8638 47.074 94.1638 47.074C93.4638 47.074 92.8151 47.2 92.2178 47.452C91.6298 47.704 91.1164 48.0587 90.6778 48.516C90.2391 48.964 89.8984 49.496 89.6558 50.112C89.4131 50.7187 89.2918 51.3813 89.2918 52.1ZM112.098 54.172L111.468 54.564C111.626 55.0213 111.85 55.446 112.14 55.838C112.429 56.23 112.788 56.5427 113.218 56.776C113.647 57.0093 114.146 57.126 114.716 57.126C115.117 57.126 115.49 57.0653 115.836 56.944C116.181 56.8133 116.48 56.6313 116.732 56.398C116.993 56.1553 117.194 55.8707 117.334 55.544C117.483 55.2173 117.558 54.8533 117.558 54.452C117.558 54.0227 117.483 53.654 117.334 53.346C117.184 53.0287 116.988 52.758 116.746 52.534C116.512 52.31 116.251 52.1233 115.962 51.974C115.672 51.8247 115.392 51.6987 115.122 51.596C114.599 51.4093 114.16 51.2133 113.806 51.008C113.451 50.7933 113.185 50.5553 113.008 50.294C112.83 50.0327 112.742 49.72 112.742 49.356C112.742 48.9173 112.896 48.5533 113.204 48.264C113.512 47.9653 113.95 47.816 114.52 47.816C114.949 47.816 115.308 47.9 115.598 48.068C115.887 48.2267 116.125 48.4273 116.312 48.67C116.508 48.9127 116.657 49.16 116.76 49.412L117.432 49.034C117.301 48.7167 117.11 48.4087 116.858 48.11C116.606 47.8113 116.288 47.564 115.906 47.368C115.532 47.172 115.084 47.074 114.562 47.074C114.058 47.074 113.605 47.1767 113.204 47.382C112.802 47.578 112.49 47.858 112.266 48.222C112.042 48.5767 111.93 48.9873 111.93 49.454C111.93 49.874 112.009 50.2333 112.168 50.532C112.336 50.8307 112.55 51.0873 112.812 51.302C113.073 51.5073 113.353 51.6847 113.652 51.834C113.96 51.974 114.254 52.0953 114.534 52.198C114.907 52.338 115.262 52.5013 115.598 52.688C115.943 52.8653 116.223 53.0987 116.438 53.388C116.652 53.6773 116.76 54.06 116.76 54.536C116.76 55.0773 116.578 55.5253 116.214 55.88C115.859 56.2253 115.364 56.398 114.73 56.398C114.263 56.398 113.862 56.3 113.526 56.104C113.19 55.8987 112.905 55.628 112.672 55.292C112.448 54.956 112.256 54.5827 112.098 54.172ZM123.275 52.03H129.883V51.302H123.275V52.03ZM129.365 47.2V57H130.149V47.2H129.365ZM122.869 47.2V57H123.639V47.2H122.869ZM136.26 52.1C136.26 51.2787 136.433 50.5507 136.778 49.916C137.133 49.272 137.613 48.768 138.22 48.404C138.836 48.0307 139.536 47.844 140.32 47.844C141.104 47.844 141.799 48.0307 142.406 48.404C143.022 48.768 143.503 49.272 143.848 49.916C144.193 50.5507 144.366 51.2787 144.366 52.1C144.366 52.912 144.193 53.64 143.848 54.284C143.503 54.928 143.022 55.4367 142.406 55.81C141.799 56.174 141.104 56.356 140.32 56.356C139.536 56.356 138.836 56.174 138.22 55.81C137.613 55.4367 137.133 54.928 136.778 54.284C136.433 53.64 136.26 52.912 136.26 52.1ZM135.448 52.1C135.448 52.8187 135.569 53.486 135.812 54.102C136.055 54.7087 136.395 55.2407 136.834 55.698C137.273 56.146 137.786 56.496 138.374 56.748C138.971 57 139.62 57.126 140.32 57.126C141.02 57.126 141.664 57 142.252 56.748C142.849 56.496 143.367 56.146 143.806 55.698C144.245 55.2407 144.585 54.7087 144.828 54.102C145.071 53.486 145.192 52.8187 145.192 52.1C145.192 51.3813 145.071 50.7187 144.828 50.112C144.585 49.496 144.245 48.964 143.806 48.516C143.367 48.0587 142.849 47.704 142.252 47.452C141.664 47.2 141.02 47.074 140.32 47.074C139.62 47.074 138.971 47.2 138.374 47.452C137.786 47.704 137.273 48.0587 136.834 48.516C136.395 48.964 136.055 49.496 135.812 50.112C135.569 50.7187 135.448 51.3813 135.448 52.1ZM150.487 47.2V57H151.257V47.2H150.487ZM150.921 47.928H152.783C153.501 47.928 154.085 48.1147 154.533 48.488C154.981 48.852 155.205 49.3887 155.205 50.098C155.205 50.798 154.981 51.3347 154.533 51.708C154.085 52.0813 153.501 52.268 152.783 52.268H150.921V52.996H152.783C153.399 52.996 153.945 52.884 154.421 52.66C154.906 52.4267 155.289 52.0907 155.569 51.652C155.849 51.2133 155.989 50.6953 155.989 50.098C155.989 49.4913 155.849 48.9733 155.569 48.544C155.289 48.1147 154.906 47.7833 154.421 47.55C153.945 47.3167 153.399 47.2 152.783 47.2H150.921V47.928Z" fill="#BB8C5F"/>
<path d="M0.113249 38L3 40.8868L5.88675 38L3 35.1133L0.113249 38ZM191.887 38L189 35.1132L186.113 38L189 40.8868L191.887 38ZM3 38.5L189 38.5L189 37.5L3 37.5L3 38.5Z" fill="#BB8C5F"/>
<path d="M28.49 28.7H28.64C28.78 28.7 28.91 28.64 29.03 28.52C29.15 28.4 29.25 28.26 29.33 28.1C29.43 27.94 29.5 27.77 29.54 27.59C29.58 27.39 29.6 27.21 29.6 27.05V11.27L21.86 29.33L14.51 12.2V27.05C14.51 27.21 14.53 27.39 14.57 27.59C14.61 27.77 14.67 27.94 14.75 28.1C14.85 28.26 14.96 28.4 15.08 28.52C15.2 28.64 15.34 28.7 15.5 28.7H15.65V29H12.38V28.7H12.53C12.67 28.7 12.8 28.64 12.92 28.52C13.04 28.4 13.14 28.26 13.22 28.1C13.3 27.94 13.36 27.77 13.4 27.59C13.44 27.39 13.46 27.21 13.46 27.05V11.06C13.46 10.92 13.44 10.76 13.4 10.58C13.36 10.4 13.3 10.23 13.22 10.07C13.14 9.91 13.04 9.78 12.92 9.68C12.8 9.56 12.67 9.5 12.53 9.5H12.38V9.2H15.44L22.4 25.61L29.36 9.2H32.75V9.5H32.6C32.44 9.5 32.3 9.56 32.18 9.68C32.06 9.78 31.95 9.91 31.85 10.07C31.77 10.23 31.71 10.4 31.67 10.58C31.63 10.76 31.61 10.92 31.61 11.06V27.05C31.61 27.21 31.63 27.39 31.67 27.59C31.71 27.77 31.77 27.94 31.85 28.1C31.95 28.26 32.06 28.4 32.18 28.52C32.3 28.64 32.44 28.7 32.6 28.7H32.75V29H28.49V28.7ZM39.7503 28.7H39.9003V29H35.6703V28.7H35.8203C35.9603 28.7 36.0903 28.64 36.2103 28.52C36.3303 28.4 36.4303 28.26 36.5103 28.1C36.6103 27.94 36.6803 27.77 36.7203 27.59C36.7603 27.39 36.7803 27.21 36.7803 27.05V11.06C36.7803 10.92 36.7603 10.76 36.7203 10.58C36.6803 10.4 36.6103 10.23 36.5103 10.07C36.4303 9.91 36.3303 9.78 36.2103 9.68C36.0903 9.56 35.9603 9.5 35.8203 9.5H35.6703V9.2H40.8903C42.8903 9.2 44.4303 9.59 45.5103 10.37C46.6103 11.15 47.1603 12.3 47.1603 13.82C47.1603 14.58 47.0303 15.25 46.7703 15.83C46.5303 16.39 46.2003 16.88 45.7803 17.3C45.3603 17.7 44.8603 18.03 44.2803 18.29C43.7203 18.53 43.1203 18.71 42.4803 18.83L44.6403 22.13C45.1603 22.93 45.6903 23.72 46.2303 24.5C46.7703 25.26 47.3003 26.05 47.8203 26.87C47.9603 27.07 48.1103 27.28 48.2703 27.5C48.4503 27.72 48.6303 27.92 48.8103 28.1C49.0103 28.28 49.2103 28.43 49.4103 28.55C49.6303 28.65 49.8503 28.7 50.0703 28.7V29H48.7803C47.9803 29 47.3203 28.81 46.8003 28.43C46.3003 28.03 45.8803 27.57 45.5403 27.05C44.6403 25.73 43.7403 24.39 42.8403 23.03C41.9603 21.67 41.0803 20.33 40.2003 19.01C39.9803 18.99 39.7403 18.97 39.4803 18.95C39.2403 18.91 39.0103 18.87 38.7903 18.83V27.05C38.7903 27.21 38.8103 27.39 38.8503 27.59C38.8903 27.77 38.9503 27.94 39.0303 28.1C39.1303 28.26 39.2303 28.4 39.3303 28.52C39.4503 28.64 39.5903 28.7 39.7503 28.7ZM38.7903 10.22V17.84H38.9403C39.1003 17.86 39.3503 17.88 39.6903 17.9C40.0503 17.9 40.4903 17.9 41.0103 17.9C41.4303 17.9 41.8703 17.84 42.3303 17.72C42.8103 17.58 43.2503 17.36 43.6503 17.06C44.0703 16.74 44.4103 16.33 44.6703 15.83C44.9503 15.33 45.0903 14.7 45.0903 13.94C45.0903 13.18 44.9403 12.56 44.6403 12.08C44.3603 11.6 43.9603 11.22 43.4403 10.94C42.9403 10.66 42.3303 10.47 41.6103 10.37C40.8903 10.27 40.1003 10.22 39.2403 10.22H38.7903ZM52.0815 27.71C52.0815 27.31 52.2115 26.97 52.4715 26.69C52.7515 26.41 53.0915 26.27 53.4915 26.27C53.8915 26.27 54.2315 26.41 54.5115 26.69C54.7915 26.97 54.9315 27.31 54.9315 27.71C54.9315 28.11 54.7915 28.45 54.5115 28.73C54.2315 28.99 53.8915 29.12 53.4915 29.12C53.0915 29.12 52.7515 28.99 52.4715 28.73C52.2115 28.45 52.0815 28.11 52.0815 27.71ZM73.2896 28.7H73.4396V29H69.1796V28.7H69.3296C69.4896 28.7 69.6296 28.64 69.7496 28.52C69.8696 28.4 69.9696 28.26 70.0496 28.1C70.1496 27.94 70.2196 27.77 70.2596 27.59C70.2996 27.39 70.3196 27.21 70.3196 27.05V10.31H66.8396C66.5196 10.31 66.2396 10.38 65.9996 10.52C65.7596 10.66 65.5596 10.84 65.3996 11.06C65.2396 11.26 65.1196 11.49 65.0396 11.75C64.9596 11.99 64.9196 12.23 64.9196 12.47H64.6196V9.2H78.0896V12.47H77.7896C77.7896 12.23 77.7496 11.99 77.6696 11.75C77.5896 11.49 77.4696 11.26 77.3096 11.06C77.1496 10.84 76.9496 10.66 76.7096 10.52C76.4696 10.38 76.1896 10.31 75.8696 10.31H72.3296V27.05C72.3296 27.21 72.3496 27.39 72.3896 27.59C72.4296 27.77 72.4896 27.94 72.5696 28.1C72.6696 28.26 72.7696 28.4 72.8696 28.52C72.9896 28.64 73.1296 28.7 73.2896 28.7ZM83.8128 28.7H83.9628V29H79.7328V28.7H79.8828C80.0228 28.7 80.1528 28.64 80.2728 28.52C80.3928 28.4 80.4928 28.26 80.5728 28.1C80.6728 27.94 80.7428 27.77 80.7828 27.59C80.8228 27.39 80.8428 27.21 80.8428 27.05V11.06C80.8428 10.92 80.8228 10.76 80.7828 10.58C80.7428 10.4 80.6728 10.23 80.5728 10.07C80.4928 9.91 80.3928 9.78 80.2728 9.68C80.1528 9.56 80.0228 9.5 79.8828 9.5H79.7328V9.2H84.9528C86.9528 9.2 88.4928 9.59 89.5728 10.37C90.6728 11.15 91.2228 12.3 91.2228 13.82C91.2228 14.58 91.0928 15.25 90.8328 15.83C90.5928 16.39 90.2628 16.88 89.8428 17.3C89.4228 17.7 88.9228 18.03 88.3428 18.29C87.7828 18.53 87.1828 18.71 86.5428 18.83L88.7028 22.13C89.2228 22.93 89.7528 23.72 90.2928 24.5C90.8328 25.26 91.3628 26.05 91.8828 26.87C92.0228 27.07 92.1728 27.28 92.3328 27.5C92.5128 27.72 92.6928 27.92 92.8728 28.1C93.0728 28.28 93.2728 28.43 93.4728 28.55C93.6928 28.65 93.9128 28.7 94.1328 28.7V29H92.8428C92.0428 29 91.3828 28.81 90.8628 28.43C90.3628 28.03 89.9428 27.57 89.6028 27.05C88.7028 25.73 87.8028 24.39 86.9028 23.03C86.0228 21.67 85.1428 20.33 84.2628 19.01C84.0428 18.99 83.8028 18.97 83.5428 18.95C83.3028 18.91 83.0728 18.87 82.8528 18.83V27.05C82.8528 27.21 82.8728 27.39 82.9128 27.59C82.9528 27.77 83.0128 27.94 83.0928 28.1C83.1928 28.26 83.2928 28.4 83.3928 28.52C83.5128 28.64 83.6528 28.7 83.8128 28.7ZM82.8528 10.22V17.84H83.0028C83.1628 17.86 83.4128 17.88 83.7528 17.9C84.1128 17.9 84.5528 17.9 85.0728 17.9C85.4928 17.9 85.9328 17.84 86.3928 17.72C86.8728 17.58 87.3128 17.36 87.7128 17.06C88.1328 16.74 88.4728 16.33 88.7328 15.83C89.0128 15.33 89.1528 14.7 89.1528 13.94C89.1528 13.18 89.0028 12.56 88.7028 12.08C88.4228 11.6 88.0228 11.22 87.5028 10.94C87.0028 10.66 86.3928 10.47 85.6728 10.37C84.9528 10.27 84.1628 10.22 83.3028 10.22H82.8528ZM96.054 9.2H100.344V9.5H100.194C100.054 9.5 99.924 9.56 99.804 9.68C99.684 9.78 99.584 9.91 99.504 10.07C99.424 10.21 99.354 10.38 99.294 10.58C99.254 10.76 99.234 10.92 99.234 11.06V27.05C99.234 27.21 99.254 27.39 99.294 27.59C99.334 27.77 99.394 27.94 99.474 28.1C99.574 28.26 99.674 28.4 99.774 28.52C99.894 28.64 100.034 28.7 100.194 28.7H100.344V29H96.054V28.7H96.204C96.364 28.7 96.504 28.65 96.624 28.55C96.744 28.43 96.844 28.29 96.924 28.13C97.024 27.95 97.094 27.77 97.134 27.59C97.174 27.39 97.194 27.21 97.194 27.05V11.06C97.194 10.92 97.174 10.76 97.134 10.58C97.094 10.4 97.024 10.23 96.924 10.07C96.844 9.91 96.744 9.78 96.624 9.68C96.504 9.56 96.364 9.5 96.204 9.5H96.054V9.2ZM115.379 23.69C115.379 24.69 115.179 25.55 114.779 26.27C114.379 26.97 113.859 27.54 113.219 27.98C112.599 28.42 111.889 28.74 111.089 28.94C110.309 29.14 109.529 29.24 108.749 29.24C107.949 29.24 107.259 29.16 106.679 29C106.099 28.84 105.569 28.69 105.089 28.55C104.769 28.45 104.479 28.37 104.219 28.31C103.959 28.23 103.699 28.19 103.439 28.19V24.77H103.739C103.739 25.53 103.929 26.14 104.309 26.6C104.709 27.04 105.169 27.38 105.689 27.62C106.209 27.86 106.729 28.02 107.249 28.1C107.769 28.16 108.149 28.19 108.389 28.19C109.249 28.19 109.989 28.07 110.609 27.83C111.229 27.57 111.739 27.24 112.139 26.84C112.539 26.42 112.829 25.96 113.009 25.46C113.209 24.96 113.309 24.45 113.309 23.93C113.309 23.27 113.169 22.72 112.889 22.28C112.609 21.82 112.239 21.42 111.779 21.08C111.339 20.74 110.829 20.45 110.249 20.21C109.669 19.97 109.079 19.73 108.479 19.49C107.799 19.23 107.129 18.96 106.469 18.68C105.809 18.4 105.219 18.06 104.699 17.66C104.179 17.24 103.759 16.75 103.439 16.19C103.119 15.61 102.959 14.9 102.959 14.06C102.959 13.18 103.129 12.42 103.469 11.78C103.809 11.12 104.259 10.58 104.819 10.16C105.399 9.74 106.049 9.43 106.769 9.23C107.509 9.01 108.259 8.9 109.019 8.9C109.539 8.9 110.029 8.94 110.489 9.02C110.949 9.08 111.389 9.16 111.809 9.26C112.149 9.34 112.479 9.41 112.799 9.47C113.119 9.51 113.429 9.53 113.729 9.53V12.62H113.429C113.389 11.58 112.979 10.88 112.199 10.52C111.419 10.14 110.339 9.95 108.959 9.95C108.159 9.95 107.499 10.09 106.979 10.37C106.479 10.63 106.079 10.96 105.779 11.36C105.479 11.74 105.269 12.16 105.149 12.62C105.049 13.06 104.999 13.45 104.999 13.79C104.999 14.35 105.119 14.83 105.359 15.23C105.619 15.63 105.959 15.98 106.379 16.28C106.799 16.58 107.279 16.85 107.819 17.09C108.379 17.33 108.959 17.56 109.559 17.78C110.239 18.04 110.929 18.32 111.629 18.62C112.329 18.92 112.949 19.29 113.489 19.73C114.049 20.17 114.499 20.71 114.839 21.35C115.199 21.99 115.379 22.77 115.379 23.69ZM122.076 28.7H122.226V29H117.936V28.7H118.086C118.246 28.7 118.386 28.64 118.506 28.52C118.626 28.4 118.726 28.26 118.806 28.1C118.906 27.94 118.976 27.77 119.016 27.59C119.056 27.39 119.076 27.21 119.076 27.05V11.06C119.076 10.92 119.056 10.76 119.016 10.58C118.976 10.4 118.906 10.23 118.806 10.07C118.726 9.91 118.626 9.78 118.506 9.68C118.386 9.56 118.256 9.5 118.116 9.5H117.966V9.2H122.256V9.5H122.106C121.946 9.5 121.806 9.56 121.686 9.68C121.566 9.78 121.456 9.91 121.356 10.07C121.276 10.23 121.206 10.4 121.146 10.58C121.106 10.76 121.086 10.92 121.086 11.06V18.02L128.706 10.46C128.826 10.32 128.886 10.16 128.886 9.98C128.886 9.66 128.766 9.5 128.526 9.5H128.376V9.2H132.036V9.5H131.886C131.606 9.5 131.316 9.6 131.016 9.8C130.716 10 130.416 10.25 130.116 10.55L123.816 16.82L130.446 26.87C130.466 26.91 130.556 27.03 130.716 27.23C130.876 27.43 131.066 27.64 131.286 27.86C131.526 28.08 131.786 28.28 132.066 28.46C132.366 28.62 132.666 28.7 132.966 28.7V29H132.246C131.646 29 131.136 28.97 130.716 28.91C130.316 28.83 129.966 28.71 129.666 28.55C129.366 28.39 129.096 28.19 128.856 27.95C128.636 27.71 128.406 27.41 128.166 27.05L122.346 18.26L121.086 19.55V27.05C121.086 27.21 121.106 27.38 121.146 27.56C121.206 27.74 121.276 27.92 121.356 28.1C121.436 28.26 121.536 28.4 121.656 28.52C121.776 28.64 121.916 28.7 122.076 28.7ZM134.928 28.7H135.078C135.238 28.7 135.378 28.65 135.498 28.55C135.618 28.43 135.718 28.29 135.798 28.13C135.898 27.97 135.968 27.8 136.008 27.62C136.068 27.44 136.098 27.27 136.098 27.11V11.06C136.098 10.92 136.068 10.76 136.008 10.58C135.968 10.4 135.898 10.23 135.798 10.07C135.718 9.91 135.618 9.78 135.498 9.68C135.378 9.56 135.238 9.5 135.078 9.5H134.928V9.2H146.478V11.99H146.178C146.138 11.53 145.958 11.13 145.638 10.79C145.318 10.43 144.818 10.25 144.138 10.25H138.108V17.84H143.088C143.548 17.84 143.928 17.7 144.228 17.42C144.548 17.14 144.708 16.81 144.708 16.43H145.008V20.18H144.708C144.708 19.82 144.558 19.51 144.258 19.25C143.958 18.99 143.568 18.86 143.088 18.86H138.108V27.95H144.678C145.058 27.95 145.388 27.86 145.668 27.68C145.948 27.5 146.178 27.29 146.358 27.05C146.558 26.79 146.698 26.52 146.778 26.24C146.878 25.94 146.928 25.69 146.928 25.49H147.228V29H134.928V28.7ZM149.489 28.7H149.639C149.799 28.7 149.939 28.65 150.059 28.55C150.179 28.43 150.279 28.29 150.359 28.13C150.459 27.97 150.529 27.8 150.569 27.62C150.629 27.44 150.659 27.27 150.659 27.11V11.06C150.659 10.92 150.629 10.76 150.569 10.58C150.529 10.4 150.459 10.23 150.359 10.07C150.279 9.91 150.179 9.78 150.059 9.68C149.939 9.56 149.799 9.5 149.639 9.5H149.489V9.2H153.809V9.5H153.659C153.499 9.5 153.359 9.56 153.239 9.68C153.119 9.78 153.019 9.91 152.939 10.07C152.859 10.23 152.789 10.4 152.729 10.58C152.689 10.76 152.669 10.92 152.669 11.06V27.89H159.239C159.619 27.89 159.949 27.8 160.229 27.62C160.509 27.44 160.739 27.22 160.919 26.96C161.119 26.68 161.259 26.39 161.339 26.09C161.439 25.77 161.489 25.48 161.489 25.22H161.789V29H149.489V28.7ZM163.434 28.7H163.584C163.744 28.7 163.884 28.65 164.004 28.55C164.124 28.43 164.224 28.29 164.304 28.13C164.404 27.97 164.474 27.8 164.514 27.62C164.574 27.44 164.604 27.27 164.604 27.11V11.06C164.604 10.92 164.574 10.76 164.514 10.58C164.474 10.4 164.404 10.23 164.304 10.07C164.224 9.91 164.124 9.78 164.004 9.68C163.884 9.56 163.744 9.5 163.584 9.5H163.434V9.2H167.754V9.5H167.604C167.444 9.5 167.304 9.56 167.184 9.68C167.064 9.78 166.964 9.91 166.884 10.07C166.804 10.23 166.734 10.4 166.674 10.58C166.634 10.76 166.614 10.92 166.614 11.06V27.89H173.184C173.564 27.89 173.894 27.8 174.174 27.62C174.454 27.44 174.684 27.22 174.864 26.96C175.064 26.68 175.204 26.39 175.284 26.09C175.384 25.77 175.434 25.48 175.434 25.22H175.734V29H163.434V28.7Z" fill="#BB8C5F"/>
</svg>
