<svg width="24" height="23" viewBox="0 0 24 23" fill="none" xmlns="http://www.w3.org/2000/svg">
<path d="M17.3196 8.91077C17.2294 8.17612 17.0041 7.59928 16.6041 7.08833C16.0847 6.43041 15.421 6.03644 14.4383 5.80273C13.7979 5.64696 13.5391 5.66484 13.3075 5.87694C13.0917 6.07566 13.0496 6.47403 13.2145 6.73201C13.3304 6.91925 13.4642 6.98633 13.8362 7.05954C14.3317 7.15092 14.674 7.26951 14.9855 7.44803C15.6465 7.83068 15.9543 8.42946 15.9873 9.39886C16.0027 9.85402 16.0419 9.99396 16.2005 10.1554C16.4944 10.4505 17.0175 10.3931 17.2394 10.04C17.3208 9.90686 17.3332 9.84893 17.3418 9.53986C17.3475 9.34851 17.3393 9.0637 17.3196 8.91077V8.91077Z" fill="#BB8C5F"/>
<path d="M19.9088 9.73908C19.7782 7.48833 18.9001 5.6775 17.3285 4.40344C16.443 3.68754 15.3726 3.19527 14.1994 2.95587C13.7696 2.87025 12.9784 2.80085 12.8426 2.84054C12.7145 2.8773 12.5333 3.01635 12.4526 3.1421C12.3672 3.27846 12.3479 3.58292 12.4208 3.75902C12.5384 4.05343 12.7571 4.15744 13.3697 4.21116C14.3141 4.29399 15.2881 4.62661 16.0241 5.11904C16.8644 5.6797 17.5323 6.44656 17.9644 7.34769C18.3377 8.12194 18.5673 9.23773 18.561 10.2369C18.5588 10.5983 18.6145 10.8024 18.7595 10.9516C18.9783 11.181 19.2973 11.2312 19.5788 11.0788C19.8907 10.9143 19.9637 10.6256 19.9088 9.73908V9.73908Z" fill="#BB8C5F"/>
<path d="M22.7736 18.4068C22.7297 18.2782 22.6272 18.0797 22.554 17.9658C22.0928 17.2676 19.6148 15.3235 18.3776 14.6877C17.6712 14.3239 17.1478 14.2026 16.7598 14.3165C16.3425 14.4342 16.1229 14.6289 15.4237 15.4999C15.1419 15.849 14.8528 16.1761 14.7759 16.2275C14.5855 16.3598 14.2122 16.4664 13.9487 16.4664C13.3374 16.4627 12.2283 16.0658 11.3755 15.544C10.7129 15.1398 9.86381 14.4158 9.21224 13.6991C8.44354 12.8576 7.92018 12.1152 7.50652 11.2773C6.97215 10.2006 6.83672 9.54271 7.05996 9.06126C7.11488 8.94 7.1881 8.81141 7.221 8.77093C7.25397 8.73424 7.59805 8.45123 7.97868 8.14252C8.72542 7.5472 8.84619 7.41122 8.98528 7.00329C9.16097 6.48509 9.11341 5.9559 8.84255 5.42304C8.63389 5.01877 8.08851 4.13678 7.69322 3.56717C7.16979 2.8175 5.86672 1.2152 5.6068 0.998312C5.13829 0.61615 4.53806 0.54996 3.87548 0.807262C3.17643 1.07922 1.86601 2.13761 1.30597 2.87629C0.800845 3.54513 0.606912 4.01918 0.577599 4.64394C0.551995 5.15841 0.595902 5.37157 0.86677 6.02942C2.98608 11.1891 6.14853 15.3088 10.4933 18.5796C12.7627 20.2884 15.1163 21.5894 17.5577 22.4788C18.9815 22.9969 19.6001 23.0226 20.3285 22.5964C20.636 22.4126 21.3973 21.6298 21.8219 21.0602C22.5247 20.112 22.7846 19.6747 22.8578 19.3256C22.909 19.0867 22.8688 18.6714 22.7736 18.4068V18.4068Z" fill="#BB8C5F"/>
<path d="M22.5444 10.256C22.4975 8.98283 22.2837 7.93854 21.8379 6.77424C21.3977 5.62896 20.9522 4.8816 20.1108 3.87078C19.3154 2.92301 18.6975 2.38185 17.7177 1.77947C16.3506 0.940183 14.6868 0.384773 12.8223 0.151191C12.1865 0.0695554 12.0426 0.0753865 11.8476 0.205874C11.4695 0.453065 11.4746 1.06962 11.8538 1.3131C11.9793 1.39056 12.0907 1.41877 12.5993 1.48551C13.3801 1.59089 13.8821 1.6902 14.4779 1.85315C16.8139 2.49333 18.6104 3.80189 19.8114 5.74438C20.8164 7.36347 21.2336 8.98268 21.1744 11.0507C21.1538 11.7498 21.1687 11.8728 21.2753 12.0408C21.4795 12.3539 22.0179 12.4158 22.2941 12.156C22.4659 11.9977 22.4983 11.8788 22.5322 11.2804C22.5484 10.9683 22.5519 10.5075 22.5444 10.256V10.256Z" fill="#BB8C5F"/>
</svg>
