<svg width="25" height="25" viewBox="0 0 25 25" fill="none" xmlns="http://www.w3.org/2000/svg">
<path fill-rule="evenodd" clip-rule="evenodd" d="M24.4564 12.0441C24.4538 18.5997 19.1209 23.9339 12.5639 23.9366H12.5589C10.5685 23.9359 8.61279 23.4365 6.87575 22.489L0.571289 24.1428L2.25847 17.9802C1.21773 16.1766 0.670105 14.1307 0.670997 12.0347C0.673606 5.47757 6.00864 0.142822 12.5637 0.142822C15.7452 0.144195 18.7311 1.38271 20.9765 3.63066C23.2218 5.87851 24.4577 8.86643 24.4564 12.0441ZM3.42668 21.3175L7.16783 20.3361L7.52878 20.5503C9.04643 21.4509 10.7861 21.9275 12.5598 21.9282H12.5638C18.012 21.9282 22.4462 17.4938 22.4484 12.0434C22.4494 9.40222 21.4222 6.91878 19.556 5.05037C17.6898 3.18196 15.2079 2.15249 12.5677 2.15158C7.11538 2.15158 2.68108 6.58547 2.67892 12.0354C2.67815 13.9032 3.20075 15.7221 4.19022 17.2959L4.42525 17.6699L3.42668 21.3175Z" fill="#BB8C5F"/>
<path d="M18.32 15.6152C18.2458 15.4912 18.0477 15.4169 17.7505 15.2681C17.4534 15.1193 15.9924 14.4006 15.72 14.3013C15.4477 14.2022 15.2495 14.1526 15.0514 14.45C14.8534 14.7475 14.2839 15.4169 14.1105 15.6152C13.9372 15.8134 13.7638 15.8383 13.4668 15.6895C13.1696 15.5408 12.2121 15.2271 11.0771 14.2146C10.1937 13.4267 9.59732 12.4536 9.42398 12.1561C9.25064 11.8586 9.4055 11.6979 9.55426 11.5497C9.68795 11.4165 9.85144 11.2025 10 11.0291C10.1486 10.8556 10.1981 10.7316 10.2972 10.5334C10.3962 10.335 10.3467 10.1615 10.2724 10.0127C10.1981 9.864 9.60382 8.40133 9.3562 7.80633C9.11497 7.22689 8.87 7.30539 8.68761 7.29623C8.51448 7.28754 8.31616 7.28571 8.11808 7.28571C7.91999 7.28571 7.59804 7.36008 7.32567 7.65758C7.0533 7.95508 6.28564 8.674 6.28564 10.1366C6.28564 11.5992 7.35042 13.0122 7.49901 13.2105C7.64758 13.4089 9.59437 16.4103 12.5753 17.6975C13.2843 18.0037 13.8377 18.1865 14.2693 18.3234C14.9812 18.5497 15.629 18.5177 16.141 18.4412C16.7119 18.3559 17.8991 17.7224 18.1468 17.0283C18.3943 16.334 18.3943 15.7391 18.32 15.6152Z" fill="#BB8C5F"/>
</svg>
