<svg width="25" height="25" fill="none" xmlns="http://www.w3.org/2000/svg"><path fill-rule="evenodd" clip-rule="evenodd" d="M24.456 12.044c-.002 6.556-5.335 11.89-11.892 11.893h-.005a11.88 11.88 0 01-5.683-1.448L.57 24.143l1.687-6.163A11.871 11.871 0 01.67 12.035C.674 5.478 6.009.143 12.564.143a11.816 11.816 0 018.413 3.488 11.82 11.82 0 013.48 8.413zm-21.03 9.273l3.742-.98.36.213a9.87 9.87 0 005.032 1.378h.004c5.448 0 9.882-4.434 9.884-9.885a9.825 9.825 0 00-2.892-6.993 9.817 9.817 0 00-6.988-2.898c-5.453 0-9.887 4.433-9.89 9.883 0 1.868.523 3.687 1.512 5.26l.235.375-.998 3.647z" fill="#BB8C5F"/><path d="M18.32 15.615c-.074-.124-.272-.198-.57-.347-.297-.149-1.758-.867-2.03-.967-.272-.099-.47-.148-.669.149-.198.298-.767.967-.94 1.165-.174.198-.347.223-.644.075-.297-.15-1.255-.463-2.39-1.475-.883-.788-1.48-1.761-1.653-2.059-.173-.297-.018-.458.13-.606.134-.134.297-.348.446-.52.149-.174.198-.298.297-.497.1-.198.05-.371-.025-.52-.074-.149-.668-1.612-.916-2.207-.241-.58-.486-.5-.668-.51a11.81 11.81 0 00-.57-.01c-.198 0-.52.074-.792.372-.273.297-1.04 1.016-1.04 2.479 0 1.462 1.064 2.875 1.213 3.073.149.199 2.095 3.2 5.076 4.488.71.306 1.263.488 1.694.625.712.227 1.36.195 1.872.118.57-.085 1.758-.719 2.006-1.413.247-.694.247-1.289.173-1.413z" fill="#BB8C5F"/></svg>